<?xml version="1.0" encoding="UTF-8" standalone="no"?>
<svg width="361px" height="57px" viewBox="0 0 361 57" version="1.1" xmlns="http://www.w3.org/2000/svg" xmlns:xlink="http://www.w3.org/1999/xlink">
    <!-- Generator: Sketch 39.1 (31720) - http://www.bohemiancoding.com/sketch -->
    <title>LOGO_SpencerStuart_PMS654_safe</title>
    <desc>Created with Sketch.</desc>
    <defs>
        <polygon id="path-1" points="27.654 0.886 0 0.886 0 22.583 0 44.28 27.654 44.28 27.654 0.886"></polygon>
        <polygon id="path-3" points="155.012 22.583 155.012 0.886 0.286 0.886 0.286 44.28 155.012 44.28"></polygon>
    </defs>
    <g id="Page-1" stroke="none" stroke-width="1" fill="none" fill-rule="evenodd">
        <g id="LOGO_SpencerStuart_PMS654_safe">
            <g id="Group-3">
                <mask id="mask-2" fill="white">
                    <use xlink:href="#path-1"></use>
                </mask>
                <g id="Clip-2"></g>
                <path d="M23.038,10.629 C22.777,7.27 19.883,3.823 13.637,3.823 C9.412,3.823 5.668,6.098 5.668,9.941 C5.668,15.727 13.336,17.485 18.836,20.707 C23.836,23.616 27.654,26.121 27.654,32.449 C27.654,40.486 20.726,44.28 11.423,44.28 C5.824,44.28 1.579,43.289 0.541,43.084 L0.101,34.163 L2.146,34.163 C2.654,37.513 4.398,40.965 11.928,40.965 C16.992,40.965 21.1,38.211 21.1,33.846 C21.1,27.215 10.414,24.92 4.529,20.427 C1.752,18.278 0,15.629 0,11.579 C0,5.622 5.092,0.885 14.838,0.885 C20.14,0.885 23.546,1.735 24.642,1.962 L25.089,10.629 L23.038,10.629" id="Fill-1" fill="#013461" mask="url(#mask-2)"></path>
            </g>
            <path d="M28.952,57 L43.734,57 L43.734,55.452 C41.078,55.452 38.926,54.822 38.926,50.775 L38.926,40.355 L39.054,40.355 C39.47,40.916 41.169,44.28 46.55,44.28 C54.127,44.28 58.37,37.41 58.37,29.1 C58.37,21.243 54.939,13.915 46.814,13.915 C41.855,13.915 39.636,17.133 39.054,18.132 L38.926,18.132 L38.926,13.915 L28.952,15.436 L28.952,16.979 C30.785,17.104 33.529,17.294 33.529,21.092 L33.529,50.775 C33.529,54.822 31.609,55.452 28.952,55.452 L28.952,57 L28.952,57 Z M39.158,29.1 C39.158,23.66 40.792,16.728 45.443,16.728 C50.896,16.728 52.045,23.533 52.045,29.1 C52.045,34.412 50.605,41.287 45.443,41.287 C40.953,41.287 39.158,35.106 39.158,29.1 L39.158,29.1 Z" id="Fill-4" fill="#013461"></path>
            <path d="M86.215,40.652 C85.55,40.848 83.164,41.473 80.41,41.473 C71.957,41.473 68.806,33.123 68.851,27.381 L87.644,27.381 L87.644,25.491 C87.644,19.509 83.709,13.915 75.801,13.915 C67.891,13.915 62.869,19.946 62.869,28.279 C62.869,38.128 69.545,44.28 78.367,44.28 C83.197,44.28 85.414,43.401 86.215,43.143 L86.215,40.652 L86.215,40.652 Z M68.802,24.261 C68.802,19.616 71.788,16.474 75.469,16.474 C79.754,16.474 81.586,20.056 81.586,24.261 L68.802,24.261 L68.802,24.261 Z" id="Fill-5" fill="#013461"></path>
            <path d="M175.891,40.652 C175.227,40.848 172.844,41.473 170.09,41.473 C161.633,41.473 158.484,33.123 158.533,27.381 L177.322,27.381 L177.322,25.491 C177.322,19.509 173.381,13.915 165.476,13.915 C157.571,13.915 152.546,19.946 152.546,28.279 C152.546,38.128 159.221,44.28 168.047,44.28 C172.873,44.28 175.09,43.401 175.891,43.143 L175.891,40.652 L175.891,40.652 Z M158.479,24.261 C158.479,19.616 161.472,16.474 165.149,16.474 C169.431,16.474 171.267,20.056 171.267,24.261 L158.479,24.261 L158.479,24.261 Z" id="Fill-6" fill="#013461"></path>
            <path d="M91.055,42.112 C93.715,42.112 95.631,41.541 95.631,37.425 L95.631,21.092 C95.631,17.294 92.888,17.104 91.055,16.979 L91.055,15.436 L101.033,13.915 L101.033,20.151 L101.159,20.151 C102.172,18.618 105.193,13.915 111.15,13.915 C116.621,13.915 118.959,17.06 118.959,22.112 L118.959,37.425 C118.959,41.541 120.875,42.112 123.531,42.112 L123.531,43.65 L108.747,43.65 L108.747,42.112 C111.406,42.112 113.324,41.541 113.324,37.425 L113.324,23.162 C113.324,19.194 112.101,17.421 109.316,17.421 C105.179,17.421 101.263,23.133 101.263,30.115 L101.263,37.425 C101.263,41.541 103.181,42.112 105.84,42.112 L105.84,43.65 L91.055,43.65 L91.055,42.112" id="Fill-7" fill="#013461"></path>
            <path d="M148.906,43.27 C147.903,43.509 145.003,44.28 141.106,44.28 C130.16,44.28 125.697,36.038 125.697,28.211 C125.697,20.629 130.661,13.915 139.729,13.915 C144.744,13.915 149.661,15.947 149.661,20.27 C149.661,22.103 148.332,23.24 146.687,23.24 C144.856,23.24 143.967,21.985 143.46,19.899 C143.145,18.505 141.496,16.474 138.713,16.474 C135.442,16.474 131.55,19.706 131.55,26.19 C131.55,34.222 136.135,41.473 144.668,41.473 C146.602,41.473 148.103,41.121 148.906,40.965 L148.906,43.27" id="Fill-8" fill="#013461"></path>
            <path d="M180.432,42.112 C183.093,42.112 184.778,41.541 184.778,37.425 L184.778,21.092 C184.778,17.294 182.337,17.104 180.432,16.979 L180.432,15.436 L190.408,13.915 L190.408,20.222 L190.539,20.222 C191.374,18.278 193.669,13.915 198.66,13.915 C201.084,13.915 202.158,15.368 202.158,17.294 C202.158,19.106 200.918,20.27 199.165,20.27 C197.156,20.27 196.853,18.749 195.281,18.749 C193.284,18.749 190.408,22.293 190.408,28.807 L190.408,37.425 C190.408,41.541 192.561,42.112 195.215,42.112 L195.215,43.65 L180.432,43.65 L180.432,42.112" id="Fill-9" fill="#013461"></path>
            <path d="M318.379,42.112 C321.035,42.112 322.722,41.541 322.722,37.425 L322.722,21.092 C322.722,17.294 320.273,17.104 318.379,16.979 L318.379,15.436 L328.357,13.915 L328.357,20.222 L328.477,20.222 C329.316,18.278 331.619,13.915 336.602,13.915 C339.023,13.915 340.098,15.368 340.098,17.294 C340.098,19.106 338.865,20.27 337.107,20.27 C335.098,20.27 334.797,18.749 333.223,18.749 C331.228,18.749 328.357,22.293 328.357,28.807 L328.357,37.425 C328.357,41.541 330.505,42.112 333.161,42.112 L333.161,43.65 L318.379,43.65 L318.379,42.112" id="Fill-10" fill="#013461"></path>
            <path d="M252.805,43.983 C252.207,44.061 250.762,44.28 249.082,44.28 C241.811,44.28 239.477,40.692 239.477,34.852 L239.477,17.104 L234.356,17.104 L234.356,14.55 C238.891,14.55 242.534,11.957 242.534,5.063 L245.115,5.063 L245.115,14.55 L252.244,14.55 L252.244,17.104 L245.115,17.104 L245.115,36.204 C245.115,40.491 247.598,41.727 250.371,41.727 C251.699,41.727 252.422,41.492 252.805,41.409 L252.805,43.983" id="Fill-11" fill="#013461"></path>
            <g id="Group-15" transform="translate(205.000000, 0.000000)">
                <mask id="mask-4" fill="white">
                    <use xlink:href="#path-3"></use>
                </mask>
                <g id="Clip-13"></g>
                <path d="M155.012,43.983 C154.414,44.061 152.966,44.28 151.296,44.28 C144.011,44.28 141.68,40.692 141.68,34.852 L141.68,17.104 L136.56,17.104 L136.56,14.55 C141.091,14.55 144.734,11.957 144.734,5.063 L147.312,5.063 L147.312,14.55 L155.012,14.55 L155.012,17.104 L147.312,17.104 L147.312,36.204 C147.312,40.491 149.805,41.727 152.578,41.727 C153.906,41.727 154.629,41.492 155.012,41.409 L155.012,43.983" id="Fill-12" fill="#013461" mask="url(#mask-4)"></path>
                <path d="M23.325,10.629 C23.064,7.27 20.171,3.823 13.926,3.823 C9.702,3.823 5.952,6.098 5.952,9.941 C5.952,15.727 13.618,17.485 19.121,20.707 C24.119,23.616 27.939,26.121 27.939,32.449 C27.939,40.486 21.016,44.28 11.709,44.28 C6.113,44.28 1.868,43.289 0.83,43.084 L0.386,34.163 L2.431,34.163 C2.939,37.513 4.688,40.965 12.217,40.965 C17.283,40.965 21.387,38.211 21.387,33.846 C21.387,27.215 10.703,24.92 4.817,20.427 C2.031,18.278 0.286,15.629 0.286,11.579 C0.286,5.622 5.383,0.885 15.127,0.885 C20.43,0.885 23.838,1.735 24.931,1.962 L25.376,10.629 L23.325,10.629" id="Fill-14" fill="#013461" mask="url(#mask-4)"></path>
            </g>
            <path d="M276.619,38.66 L276.496,38.66 C275.332,40.101 272.773,44.28 266.68,44.28 C261.523,44.28 258.203,40.613 258.203,34.73 L258.203,21.092 C258.203,17.294 255.762,17.104 253.865,16.979 L253.865,15.436 L263.845,13.915 L263.845,33.626 C263.845,39.774 266.355,41.058 268.984,41.058 C272.93,41.058 276.619,35.809 276.619,31.209 L276.619,21.092 C276.619,17.294 273.711,17.104 271.814,16.979 L271.814,15.436 L282.253,13.915 L282.253,37.108 C282.253,40.906 284.7,41.097 286.599,41.219 L286.599,42.762 L276.619,44.28 L276.619,38.66" id="Fill-16" fill="#013461"></path>
            <path d="M315.871,41.917 C315.293,42.044 315.193,42.171 314.621,42.171 C312.663,42.171 311.902,41.234 311.902,39.022 L311.902,23.973 C311.902,18.093 309.461,13.915 300.723,13.915 C295.188,13.915 290.222,16.415 290.222,20.121 C290.222,21.824 291.367,23.245 293.066,23.245 C294.141,23.245 296.231,22.527 296.231,20.095 C296.231,18.071 297.195,16.43 300.657,16.43 C305.232,16.43 306.035,20.251 306.035,24.534 L306.035,27.147 C301.228,27.586 288.731,27.772 288.731,37.132 C288.731,41.248 291.843,44.28 296.931,44.28 C302.129,44.28 304.551,41.629 305.911,40.125 L306.035,40.125 C306.035,42.85 307.712,44.28 311.365,44.28 C313.457,44.28 315.11,43.904 315.871,43.714 L315.871,41.917 L315.871,41.917 Z M306.035,33.338 C306.035,37.64 303.703,41.019 299.48,41.019 C297.024,41.019 294.961,39.412 294.961,36.121 C294.961,30.237 303.064,29.671 306.035,29.608 L306.035,33.338 L306.035,33.338 Z" id="Fill-17" fill="#013461"></path>
        </g>
    </g>
</svg>